<?xml version="1.0" encoding="UTF-8" standalone="no"?>
<!-- Created with Inkscape (http://www.inkscape.org/) -->
<svg
   xmlns:dc="http://purl.org/dc/elements/1.1/"
   xmlns:cc="http://web.resource.org/cc/"
   xmlns:rdf="http://www.w3.org/1999/02/22-rdf-syntax-ns#"
   xmlns:svg="http://www.w3.org/2000/svg"
   xmlns="http://www.w3.org/2000/svg"
   xmlns:sodipodi="http://sodipodi.sourceforge.net/DTD/sodipodi-0.dtd"
   xmlns:inkscape="http://www.inkscape.org/namespaces/inkscape"
   version="1.0"
   width="600"
   height="300"
   id="svg1946"
   sodipodi:version="0.32"
   inkscape:version="0.45.1"
   sodipodi:docname="autoplot.svg"
   inkscape:output_extension="org.inkscape.output.svg.inkscape"
   sodipodi:docbase="C:\Documents and Settings\Bob\Desktop"
   inkscape:export-filename="C:\Documents and Settings\Bob\Desktop\autoplot.png"
   inkscape:export-xdpi="237.67"
   inkscape:export-ydpi="237.67">
  <metadata
     id="metadata11">
    <rdf:RDF>
      <cc:Work
         rdf:about="">
        <dc:format>image/svg+xml</dc:format>
        <dc:type
           rdf:resource="http://purl.org/dc/dcmitype/StillImage" />
      </cc:Work>
    </rdf:RDF>
  </metadata>
  <sodipodi:namedview
     inkscape:window-height="704"
     inkscape:window-width="1366"
     inkscape:pageshadow="2"
     inkscape:pageopacity="0.0"
     guidetolerance="10.0"
     gridtolerance="10.0"
     objecttolerance="10.0"
     borderopacity="1.0"
     bordercolor="#666666"
     pagecolor="#ffffff"
     id="base"
     inkscape:zoom="3.0971277"
     inkscape:cx="101.76754"
     inkscape:cy="148.09779"
     inkscape:window-x="0"
     inkscape:window-y="26"
     inkscape:current-layer="svg1946" />
  <defs
     id="defs1958" />
  <rect
     style="opacity:1;fill:#000000;fill-opacity:1;fill-rule:evenodd;stroke:#000000;stroke-width:0.37701511;stroke-miterlimit:4;stroke-dasharray:none;stroke-opacity:1"
     id="rect2226"
     width="59.622986"
     height="59.622986"
     x="106.35548"
     y="108.59902" />
  <path
     id="path2166"
     style="fill:#ffff00;fill-opacity:1;fill-rule:evenodd;stroke:none;stroke-width:0.35280001;stroke-linecap:round;stroke-linejoin:bevel"
     d="M 149.5418,123.26557 L 144.66426,130.19966 L 139.07603,126.06959 L 113.54442,162.36879 L 108.43235,158.92315 L 134.97092,123.21154 L 127.32949,118.41522 L 136.53241,114.13206 L 149.5418,123.26557 z " />
  <flowRoot
     xml:space="preserve"
     id="flowRoot2184"><flowRegion
       id="flowRegion2186"><rect
         id="rect2188"
         width="793.6073"
         height="162.55708"
         x="28.310503"
         y="15.068493" /></flowRegion><flowPara
       id="flowPara2190" /></flowRoot>  <path
     id="path5304"
     style="fill:#ffff00;fill-opacity:1;fill-rule:evenodd;stroke:none;stroke-width:0.35280001;stroke-linecap:round;stroke-linejoin:bevel"
     d="M 123.61929,123.39635 L 128.49683,130.33044 L 134.08506,126.20037 L 159.61667,162.49957 L 164.72874,159.05393 L 138.19017,123.34232 L 145.8316,118.546 L 136.62868,114.26284 L 123.61929,123.39635 z " />
  <path
     style="fill:none;fill-rule:evenodd;stroke:#ffff00;stroke-width:1;stroke-linecap:butt;stroke-linejoin:miter;stroke-miterlimit:4;stroke-dasharray:none;stroke-opacity:1"
     d="M 124.75583,143.33887 C 124.76355,143.34407 124.78801,145.29391 125.08121,145.81994 C 125.53735,146.63834 125.57292,146.99077 126.22003,147.57128 C 126.92263,148.20157 127.15244,148.04834 127.68423,147.57128 C 128.2281,147.08339 128.2223,149.06421 128.33499,149.46856 C 128.5934,150.3958 128.86509,151.07884 129.14843,152.09557 C 129.40634,153.02103 129.63921,153.41089 130.28726,153.84691 C 130.8698,154.23884 131.13987,154.58541 131.75146,154.72258 C 132.52358,154.89574 132.40222,152.82252 132.40222,152.5334 C 132.40222,151.56637 133.26472,151.74171 134.1918,151.94962 C 134.2909,151.97185 134.1918,154.29 134.1918,154.57663 C 134.1918,155.50095 134.1918,156.42527 134.1918,157.34959 C 134.1918,158.34504 134.19913,158.51714 135.33063,158.51714 C 135.73456,158.51714 135.656,156.61827 135.656,156.32797 C 135.656,155.37992 135.59666,154.64761 136.14407,153.99285 C 136.34886,153.7479 136.30676,152.11687 136.30676,151.80368 C 136.30676,151.30323 137.08705,150.69559 137.28289,150.34423 C 137.60173,149.77219 138.1146,149.76045 139.07247,149.76045 C 140.41154,149.76045 140.04861,149.10093 140.04861,148.00911 C 140.04861,147.23074 140.04861,146.45237 140.04861,145.67399 C 140.04861,144.87837 140.2113,144.24189 140.2113,143.48482 C 140.2113,142.68003 141.08795,142.33143 141.6755,142.4632 C 141.76501,142.48328 141.6755,144.70827 141.6755,144.94427 C 141.6755,145.72264 141.6755,146.50101 141.6755,147.27939 C 141.6755,148.37086 141.94734,148.69081 142.65164,149.32262 C 143.46549,150.0527 143.13971,149.1456 143.13971,148.301 C 143.13971,147.20453 143.3024,146.20033 143.3024,145.09021 C 143.3024,144.13062 143.42687,143.62195 143.62777,142.90104 C 144.00258,141.55613 145.35447,143.57436 145.74273,143.92265 C 146.2011,144.33385 145.90542,146.24811 145.90542,146.84155 C 145.90542,147.96764 146.31504,147.85276 146.55618,146.9875 C 146.78002,146.1843 146.47629,145.52543 146.88155,144.79832 C 147.54337,143.61094 147.94349,144.63472 148.34576,145.23616 C 148.74084,145.82686 148.67114,146.80419 148.67114,147.71722 C 148.67114,148.53622 148.29449,149.46856 149.32189,149.46856 C 150.53743,149.46856 150.62341,149.57577 150.62341,150.63612 C 150.62341,152.0644 150.7861,149.98715 150.7861,149.46856 C 150.7861,149.27397 150.7861,149.07937 150.7861,148.88478"
     id="path4232" />
</svg>
